<svg width="532" height="532" viewBox="0 0 532 532" fill="none" xmlns="http://www.w3.org/2000/svg">
<path d="M396.138 309.282L372.824 248.357L291.816 329.365L312.29 419.274L396.138 309.282Z" fill="#F2C94C"/>
<path d="M221.613 134.757L278.463 153.996L197.455 235.003L112.886 219.87L221.613 134.757Z" fill="#F2994A"/>
<path d="M210.723 317.877L228.018 300.582L245.313 283.286L429.796 98.8037C429.796 98.8037 391.441 83.3586 318.739 119.477C276.915 140.255 242.915 164.707 209.529 192.733C188.074 210.744 168.41 232.326 148.181 255.335L149 268L150 279.5L151 294L152.29 305.565L187.663 340.937L199.193 329.407L210.723 317.877Z" fill="#2563EB"/>
<path d="M210.723 317.877L228.018 300.582L245.313 283.286L429.796 98.8037C429.796 98.8037 445.988 137.906 410.378 211.116C389.892 253.233 365.573 287.365 337.621 320.826C319.659 342.328 298.05 361.966 275.002 382.156L264 381.5L250.5 380L238 379L224.017 377.292L187.663 340.937L199.193 329.407L210.723 317.877Z" fill="#2563EB"/>
<path d="M155.66 344.542C165.118 354 171.666 360.548 187.672 376.554C205.288 394.17 141.286 431.671 136.921 427.306C132.555 422.941 100.45 431.764 100.45 431.764C100.45 431.764 111.457 401.842 104.909 395.294C98.3608 388.746 139.318 328.2 155.66 344.542Z" fill="#E36018"/>
<path d="M158.439 347.321C166.252 355.135 171.661 360.544 184.884 373.766C199.436 388.318 150.426 415.436 146.82 411.83C143.214 408.224 118.25 413.956 118.25 413.956C118.25 413.956 125.785 390.794 120.376 385.385C114.966 379.976 144.939 333.821 158.439 347.321Z" fill="#FFAE44"/>
<path d="M162.607 351.489C167.953 356.835 171.654 360.536 180.701 369.583C190.658 379.54 157.793 397.426 155.325 394.959C152.858 392.492 136.046 396.144 136.046 396.144C136.046 396.144 140.933 380.566 137.232 376.865C133.531 373.164 153.37 342.252 162.607 351.489Z" fill="#FCE25E"/>
<path d="M159.176 312.451L217.929 371.204L193.004 389.008L143.153 339.157L159.176 312.451Z" fill="#5B6575"/>
<circle cx="369.629" cy="159.703" r="35.2857" transform="rotate(45 369.629 159.703)" fill="white" stroke="#5B6575" stroke-width="10"/>
</svg>
