<svg width="309" height="40" viewBox="0 0 309 40" fill="none" xmlns="http://www.w3.org/2000/svg">
<path fill-rule="evenodd" clip-rule="evenodd" d="M40.0379 20.037C40.0379 30.5129 31.9829 39.1111 21.7172 39.9985C15.7275 40.0819 13.1587 36.7345 13.1587 32.4601C13.1587 27.5171 14.9219 25.7856 17.1179 24.0444C17.0061 24.1338 17.4141 24.2916 17.9325 24.4417C18.8699 24.7133 19.6292 25.5453 19.6806 26.5191C19.7599 28.0232 21.4401 28.8766 22.7033 28.0544L25.3437 26.3357C25.9108 25.9666 26.2528 25.3362 26.2528 24.66V22.8566C26.2528 22.2047 26.5762 21.6051 27.1013 21.2181C29.0378 19.7908 32.9047 16.3758 32.5395 10.5271C32.4888 9.71523 31.8673 9.05834 31.0606 8.9479C26.1274 8.27251 22.4161 10.2992 19.8347 12.7253C19.36 13.1714 18.715 13.4014 18.0703 13.3065L16.2774 13.0427C15.6086 12.9443 14.9352 13.1897 14.487 13.6954L12.4013 16.0483C11.4011 17.1768 12.0011 18.9639 13.4801 19.2616C14.4372 19.4542 15.0724 20.3282 15.1985 21.2954C15.2359 21.5817 15.2921 21.8755 15.3751 22.158C15.3836 22.187 15.3733 22.2183 15.3488 22.2362C11.4406 25.0831 7.00185 27.1619 4.30286 26.0483C0.0863368 24.3085 -1.92294 18.6236 2.45863 10.2166C5.90071 4.11846 12.4495 0 19.962 0C31.0496 0 40.0379 8.97087 40.0379 20.037ZM28.0497 15.1009C28.0497 16.3743 27.0153 17.4067 25.7394 17.4067C24.4635 17.4067 23.4291 16.3743 23.4291 15.1009C23.4291 13.8274 24.4635 12.7951 25.7394 12.7951C27.0153 12.7951 28.0497 13.8274 28.0497 15.1009ZM63.7164 28.5865C57.4779 28.5865 53.8424 25.7399 53.8424 20.0468C53.8424 14.3761 57.4779 11.552 63.7164 11.552C69.5511 11.552 73.0518 13.9727 73.5231 18.4779H67.5538C67.3294 17.4468 66.1849 16.2589 63.7164 16.2589C60.7991 16.2589 59.6771 17.9399 59.6771 20.0468C59.6771 22.1761 60.8216 23.8796 63.7164 23.8796C66.1849 23.8796 67.3294 22.6692 67.5538 21.6158H73.5231C73.0518 26.1434 69.5735 28.5865 63.7164 28.5865ZM75.7626 28.1382V12.0003H81.3729V28.1382H75.7626ZM96.8597 12.0003H84.0684V28.1382H89.6786V24.2382H96.8597C100.877 24.2382 103.323 21.952 103.323 18.1192C103.323 14.2865 100.877 12.0003 96.8597 12.0003ZM89.6786 19.5313V16.7072H95.5133C96.5456 16.7072 97.4881 16.7072 97.4881 18.1192C97.4881 19.5313 96.5456 19.5313 95.5133 19.5313H89.6786ZM111.177 17.7158H120.378V12.0003H125.988V28.1382H120.378V22.4227H111.177V28.1382H105.567V12.0003H111.177V17.7158ZM145.294 12.0003H128.687V28.1382H145.294V23.8796H134.297V22.1986H144.845V17.9399H134.297V16.2589H145.294V12.0003ZM167.029 17.2227C167.029 19.6882 165.975 21.1227 164.022 21.7951C165.885 21.9072 167.029 22.983 167.029 24.9106V28.1382H161.419V25.852C161.419 24.4175 161.06 24.0141 159.624 24.0141H153.385V28.1382H147.775V12.0003H160.342C164.808 12.0003 167.029 13.8382 167.029 17.2227ZM161.195 18.0072C161.195 16.483 160.252 16.483 158.996 16.483H153.385V19.5313H158.996C160.252 19.5313 161.195 19.5313 161.195 18.0072ZM184.307 12.0003H178.697V28.1382H194.855V23.4313H184.307V12.0003ZM212.612 12.0003L220.355 28.1382H214.385L213.061 25.3141H204.175L202.851 28.1382H196.881L204.623 12.0003H212.612ZM211.176 21.2796L208.618 15.8554L206.06 21.2796H211.176ZM240.347 12.0003H234.736V20.0468C234.736 21.9296 233.906 23.8796 230.473 23.8796C227.039 23.8796 226.209 21.952 226.209 20.0468V12.0003H220.599V20.271C220.599 25.7399 223.561 28.5865 230.473 28.5865C237.362 28.5865 240.347 25.7175 240.347 20.271V12.0003ZM251.123 12.0003L258.798 22.6692V12.0003H264.409V28.1382H256.105L248.431 17.4692V28.1382H242.82V12.0003H251.123ZM266.659 20.0468C266.659 25.7399 270.294 28.5865 276.533 28.5865C282.39 28.5865 285.868 26.1434 286.339 21.6158H280.37C280.146 22.6692 279.001 23.8796 276.533 23.8796C273.638 23.8796 272.493 22.1761 272.493 20.0468C272.493 17.9399 273.615 16.2589 276.533 16.2589C279.001 16.2589 280.146 17.4468 280.37 18.4779H286.339C285.868 13.9727 282.367 11.552 276.533 11.552C270.294 11.552 266.659 14.3761 266.659 20.0468ZM294.189 17.7158H303.39V12.0003H309V28.1382H303.39V22.4227H294.189V28.1382H288.579V12.0003H294.189V17.7158Z" fill="#1C2E38"/>
</svg>
